<?xml version="1.0" encoding="UTF-8"?>
<svg xmlns="http://www.w3.org/2000/svg" width="1200" height="700" viewBox="0 0 1200 700">
  <style> .title { font: bold 18px sans-serif; } .cat { font: 14px sans-serif; fill: #fff } .box { fill:#2b6cb0; stroke:#1a365d; stroke-width:2 } .note { font:12px sans-serif; fill:#111 } </style>
  <text x="25" y="35" class="title">QC Inspection Tools — Overview</text>
  <!-- Boxes -->
  <rect class="box" x="40" y="60" width="240" height="90" rx="8"/>
  <text x="160" y="110" class="cat" text-anchor="middle">Measurement & Layout</text>

  <rect class="box" x="340" y="60" width="240" height="90" rx="8"/>
  <text x="460" y="110" class="cat" text-anchor="middle">Structural & Materials</text>

  <rect class="box" x="640" y="60" width="240" height="90" rx="8"/>
  <text x="760" y="110" class="cat" text-anchor="middle">Electrical</text>

  <rect class="box" x="940" y="60" width="240" height="90" rx="8"/>
  <text x="1060" y="110" class="cat" text-anchor="middle">Plumbing & HVAC</text>

  <rect class="box" x="190" y="190" width="240" height="90" rx="8"/>
  <text x="310" y="240" class="cat" text-anchor="middle">Insulation & Roofing</text>

  <rect class="box" x="490" y="190" width="240" height="90" rx="8"/>
  <text x="610" y="240" class="cat" text-anchor="middle">Fire & Safety</text>

  <rect class="box" x="790" y="190" width="240" height="90" rx="8"/>
  <text x="910" y="240" class="cat" text-anchor="middle">Documentation & Calibration</text>

  <!-- Connectors -->
  <line x1="160" y1="150" x2="310" y2="190" stroke="#333" stroke-width="2"/>
  <line x1="460" y1="150" x2="610" y2="190" stroke="#333" stroke-width="2"/>
  <line x1="760" y1="150" x2="910" y2="190" stroke="#333" stroke-width="2"/>

  <!-- Notes -->
  <text x="40" y="320" class="note">Key Examples:</text>
  <text x="40" y="340" class="note">- Measurement: laser distance meter, laser level, tape</text>
  <text x="40" y="360" class="note">- Structural: moisture meters, calipers, straightedge</text>
  <text x="40" y="380" class="note">- Electrical: Fluke multimeter, clamp meter, megger</text>
  <text x="40" y="400" class="note">- Plumbing/HVAC: pressure pump, manometer, manifold, anemometer</text>
  <text x="40" y="420" class="note">- Doc/Cal: rugged tablet, photo scale, calibration references</text>

  <text x="40" y="460" class="note">Use categories to assign items to crews, warehouse stock, and calibration schedules.</text>
</svg>
